<svg width="284" height="257" viewBox="0 0 284 257" fill="none" xmlns="http://www.w3.org/2000/svg">
<path d="M172.721 256.238C172.721 256.238 172.721 248.367 170.175 243.042C167.628 237.718 160.451 227.994 156.053 221.976C151.655 215.957 152.812 206.697 152.812 206.697C152.812 206.697 145.404 204.614 136.144 192.575C126.884 180.537 125.032 164.332 125.032 164.332L161.147 157.155C161.147 157.155 172.333 142.938 178.12 155.207C183.907 167.477 182.445 213.178 184.297 221.05C186.149 228.921 186.612 253.923 186.612 253.923" fill="#263238"/>
<path d="M172.721 256.238C172.721 256.238 172.721 248.367 170.175 243.042C167.628 237.718 160.451 227.994 156.053 221.976C151.655 215.957 152.812 206.697 152.812 206.697C152.812 206.697 145.404 204.614 136.144 192.575C126.884 180.537 125.032 164.332 125.032 164.332L161.147 157.155C161.147 157.155 172.333 142.938 178.12 155.207C183.907 167.477 182.445 213.178 184.297 221.05C186.149 228.921 186.612 253.923 186.612 253.923" stroke="#263238" stroke-miterlimit="10"/>
<path d="M156.979 152.294C156.979 152.294 159.062 163.638 160.451 171.508C161.84 179.379 166.239 186.556 166.239 186.556C166.239 186.556 163.923 194.89 166.47 203.456C169.016 212.022 171.563 228.922 183.832 230.079C196.102 231.237 201.195 223.597 201.195 223.597C201.195 223.597 214.391 228.69 224.808 220.818C235.226 212.947 242.171 198.131 239.161 187.482C236.151 176.833 232.447 171.971 216.705 166.183C200.963 160.396 178.739 165.489 175.266 167.804C171.793 170.119 169.015 176.138 169.015 176.138L163.459 161.322L161.144 151.368L156.979 152.294Z" fill="#707070" stroke="#263238" stroke-miterlimit="10"/>
<path d="M2.56592 81.4536C2.56592 81.4536 3.49152 103.215 15.5299 115.947C27.5683 128.68 41.2267 135.162 51.1811 136.319C61.1355 137.476 68.0811 139.098 68.0811 139.098C68.0811 139.098 72.7115 169.193 89.8427 175.212C106.974 181.231 109.057 180.999 116.003 176.601C122.948 172.202 128.272 168.266 128.272 168.266C128.272 168.266 96.7883 165.257 88.2219 147.431C79.6563 129.606 65.3035 116.178 50.2555 108.307C35.2075 100.436 8.58512 87.9352 7.65872 86.0832C6.73312 84.2312 2.56592 81.4536 2.56592 81.4536Z" fill="#263238" stroke="#263238" stroke-miterlimit="10"/>
<path d="M23.1697 40.0144C23.1697 40.0144 19.9289 43.7184 17.8449 46.4968C15.7617 49.2752 14.8353 51.5896 14.8353 51.5896C14.8353 51.5896 6.26971 57.1456 4.18651 63.396C2.10331 69.6464 0.94571 73.5824 1.87131 79.8328C2.79771 86.0832 5.11211 91.6392 5.11211 91.6392C5.11211 91.6392 5.34331 97.6584 15.0665 101.362C24.7897 105.066 53.2649 115.947 54.6537 117.105C56.0425 118.262 66.4601 125.439 66.4601 125.439L68.7753 137.246C68.7753 137.246 70.1641 151.83 72.4793 155.766C74.7945 159.701 78.4985 170.118 85.9065 174.054C93.3145 177.99 102.575 177.758 108.363 176.37C114.15 174.981 118.086 173.129 131.281 168.73C144.476 164.33 149.339 163.174 150.264 162.942C151.19 162.711 182.443 169.425 191.009 167.804C199.575 166.183 203.047 162.942 203.047 162.942C203.047 162.942 207.446 171.277 213.928 175.212C220.411 179.147 237.773 187.945 239.856 189.565C241.939 191.186 244.487 196.278 250.505 195.352C256.524 194.426 259.765 186.555 260.459 185.629C261.154 184.702 269.719 174.285 272.266 169.192C274.812 164.099 275.739 160.163 275.739 160.163C275.739 160.163 283.61 152.061 281.989 138.402C280.368 124.743 278.516 113.168 275.044 103.213C271.572 93.2576 269.719 89.5544 269.719 89.5544C269.719 89.5544 267.404 67.5616 256.755 57.3752C246.107 47.1888 239.855 44.1792 239.855 44.1792C239.855 44.1792 232.447 32.8352 222.261 28.6688C212.075 24.5016 196.795 12.6952 189.619 9.91681C182.443 7.13841 178.275 9.2224 178.275 9.2224C178.275 9.2224 158.598 2.972 144.013 2.972C129.428 2.972 129.428 2.972 129.428 2.972C129.428 2.972 115.075 -0.0376006 100.491 2.972C85.9057 5.9816 70.6265 3.6664 59.9777 8.2968C49.3289 12.9272 37.9849 23.8072 37.9849 23.8072C37.9849 23.8072 25.9481 31.4488 23.1697 40.0144Z" fill="url(#paint0_linear_308_190)"/>
<path opacity="0.2" d="M275.045 103.214C271.572 93.26 269.72 89.556 269.72 89.556C269.72 89.556 267.405 67.5632 256.756 57.3768C251.83 52.6648 247.859 49.5032 244.999 47.4496C234.414 173.74 98.6448 119.149 61.856 122.247C64.3232 123.966 66.4608 125.438 66.4608 125.438L68.776 137.245C68.776 137.245 70.1648 151.83 72.48 155.765C74.7952 159.7 78.4992 170.118 85.9072 174.054C93.3152 177.989 102.575 177.758 108.363 176.369C114.15 174.98 118.086 173.128 131.282 168.73C144.478 164.331 149.339 163.174 150.265 162.942C151.191 162.711 182.444 169.425 191.01 167.804C199.575 166.183 203.048 162.942 203.048 162.942C203.048 162.942 207.446 171.277 213.929 175.212C220.411 179.147 237.774 187.945 239.857 189.566C241.94 191.186 244.487 196.279 250.506 195.353C256.524 194.426 259.766 186.556 260.46 185.63C261.154 184.703 269.72 174.286 272.266 169.193C274.813 164.1 275.739 160.164 275.739 160.164C275.739 160.164 283.61 152.062 281.99 138.402C280.37 124.744 278.518 113.17 275.045 103.214Z" fill="black"/>
<path opacity="0.2" d="M130.284 53.704C130.284 53.704 128.402 47.2496 123.291 59.8896C118.181 72.5304 116.03 82.7504 110.113 87.5912C104.196 92.432 91.2863 90.5496 89.6727 93.2392C88.0591 95.9288 88.5967 98.08 88.5967 98.08C88.5967 98.08 95.0511 97.5424 98.0095 97.5424C100.968 97.5424 110.382 98.6184 110.382 98.6184L117.374 95.9288C117.374 95.9288 116.298 91.8944 116.837 91.088C117.374 90.2808 121.678 87.8608 123.022 80.868C124.367 73.8752 125.174 62.3104 125.981 60.6968C126.788 59.0832 130.284 53.704 130.284 53.704Z" fill="black"/>
<path opacity="0.2" d="M113.341 119.059C113.341 119.059 121.678 113.949 126.788 113.949C131.898 113.949 141.849 115.831 151.8 111.259C161.751 106.687 174.392 97.2736 174.392 97.2736C174.392 97.2736 188.378 101.577 196.983 93.508C205.59 85.44 205.321 71.4544 210.43 70.6472C215.54 69.84 214.196 85.708 210.699 90.0112C207.203 94.3144 201.286 104.266 197.252 105.879C193.218 107.493 186.763 109.375 181.653 109.375C176.542 109.375 171.164 111.258 171.164 111.258L160.137 117.174L146.958 119.595C146.958 119.595 134.587 123.361 131.898 123.361C129.209 123.362 115.492 118.252 113.341 119.059Z" fill="black"/>
<path opacity="0.2" d="M185.957 17.396C185.957 17.396 186.495 24.6576 182.461 29.4984C178.427 34.3392 180.31 35.9536 177.082 39.1808C173.855 42.408 170.896 42.1392 167.668 45.9048C164.441 49.6704 163.634 52.0904 162.289 53.1664C160.944 54.2424 154.759 50.208 149.918 58.276C145.077 66.3448 151.531 70.9168 148.035 79.5232C144.539 88.1296 143.463 90.8192 143.463 90.8192L157.18 87.3232C157.18 87.3232 153.146 81.1376 152.608 75.2208C152.071 69.304 151.532 62.3112 155.298 59.084C159.063 55.8568 162.559 55.8568 162.559 55.8568C162.559 55.8568 167.669 48.3264 170.359 46.4432C173.048 44.5608 185.211 38.7736 186.764 38.1056C188.317 37.4376 189.991 37.568 189.991 37.568V24.9272L188.109 21.1616L185.957 17.396Z" fill="black"/>
<path opacity="0.2" d="M202.094 24.12C202.094 24.12 206.935 27.616 208.818 35.1472C210.701 42.6784 208.011 43.216 208.011 43.216L213.659 45.3672C213.659 45.3672 213.928 38.3744 211.239 32.1888C208.548 26.0024 202.094 24.12 202.094 24.12Z" fill="black"/>
<path opacity="0.2" d="M129.209 14.7072C129.209 14.7072 124.099 20.624 120.065 24.3896C116.03 28.1552 107.424 32.996 102.852 31.1136C98.28 29.2312 96.9352 27.0792 96.9352 27.0792C96.9352 27.0792 104.466 34.8784 103.121 39.4512C101.776 44.0232 97.204 53.9744 89.4048 55.8568C81.6056 57.7392 69.2336 53.9744 62.7792 55.8568C56.3248 57.7392 53.3664 67.6904 52.828 69.0352C52.2904 70.38 49.0624 68.7664 44.7592 67.6904C40.456 66.6144 38.0352 66.884 38.0352 66.884C38.0352 66.884 42.876 72.8008 41.8008 76.028C40.7248 79.2552 38.3048 79.7936 38.3048 79.7936C38.3048 79.7936 43.684 77.6424 46.104 77.104C48.5248 76.5664 52.828 77.9112 52.828 77.9112C52.828 77.9112 59.552 65.2704 64.3928 64.464C69.2336 63.6576 73.268 66.0776 73.268 66.0776C73.268 66.0776 82.1432 59.892 85.3704 59.892C88.5976 59.892 94.5144 65.0024 94.5144 65.0024C94.5144 65.0024 96.3968 61.7752 98.0104 60.968C99.624 60.1608 102.045 59.6232 102.045 59.6232C102.045 59.6232 102.582 45.6376 106.348 40.528C110.114 35.4184 124.637 27.8872 124.637 27.8872C124.637 27.8872 120.871 24.6584 129.209 14.7072Z" fill="black"/>
<path opacity="0.2" d="M89.6731 78.9856C89.6731 78.9856 84.8323 90.0128 81.3355 91.3576C77.8395 92.7024 75.1499 88.3992 75.1499 88.3992C75.1499 88.3992 75.9571 95.9296 72.9987 97.0056C70.0403 98.0816 65.4683 94.8544 65.4683 94.8544C65.4683 94.8544 65.1995 97.0056 62.2411 97.544C59.2827 98.0816 50.6763 93.2408 46.3731 88.9376C42.0699 84.6344 40.9939 81.4072 40.9939 81.4072C40.9939 81.4072 38.0355 85.4416 39.6491 88.4C41.2627 91.3584 50.1379 96.7376 53.0963 98.0824C56.0547 99.4272 72.4603 106.151 72.4603 106.151C72.4603 106.151 77.8395 101.848 80.2595 100.772C82.6803 99.696 86.4451 98.3512 86.4451 98.3512C86.4451 98.3512 85.3691 97.0064 85.9075 93.7792C86.4459 90.5504 89.6731 78.9856 89.6731 78.9856Z" fill="black"/>
<path opacity="0.2" d="M72.4608 109.108C72.4608 109.108 70.3096 110.453 66.2752 112.066C62.2408 113.68 40.7248 103.998 30.236 98.888C19.7472 93.7776 9.52724 82.7512 8.45124 78.7168C7.37524 74.6824 7.64484 72.5312 7.64484 72.5312C7.64484 72.5312 4.41764 87.3232 7.37604 93.24C10.3344 99.1568 27.816 104.536 34.2704 107.226C40.7256 109.915 59.8584 122.21 61.8568 122.249C63.8552 122.287 68.1584 126.59 68.1584 126.59C68.1584 126.59 68.8632 118.346 69.2344 115.833C69.604 113.318 72.4608 109.108 72.4608 109.108Z" fill="black"/>
<path opacity="0.2" d="M226.568 86.516C226.568 86.516 233.83 89.4744 240.554 87.592C247.278 85.7096 251.311 78.448 254.001 80.868C256.69 83.2888 260.725 94.3152 260.455 105.611C260.186 116.907 258.842 118.521 259.918 120.403C260.994 122.286 264.49 123.362 261.531 123.63C258.573 123.899 255.883 123.093 255.883 123.093C255.883 123.093 257.497 113.41 254.807 104.804C252.118 96.1976 253.13 91.7096 249.966 90.012C246.803 88.3136 248.084 89.4744 239.209 91.6256C230.333 93.7776 225.031 90.588 226.568 86.516Z" fill="black"/>
<path opacity="0.2" d="M220.382 105.342C220.382 105.342 220.086 116.103 223.878 119.058C227.67 122.014 230.063 117.982 229.526 119.327C228.988 120.672 223.34 129.278 225.76 135.195C228.181 141.112 243.242 142.994 243.242 142.994C243.242 142.994 255.882 146.222 260.992 150.794C266.102 155.366 265.564 162.627 265.564 162.627L252.117 156.173C252.117 156.173 251.579 150.256 247.276 150.256C242.973 150.256 238.67 150.525 233.29 149.18C227.911 147.835 222.854 145.642 221.457 141.112C220.059 136.582 218.23 133.043 216.885 132.774C215.54 132.506 212.313 131.161 212.313 131.161C212.313 131.161 202.899 127.934 201.286 127.395C199.672 126.858 192.679 126.319 192.679 126.319C192.679 126.319 205.858 123.898 210.161 120.402C214.465 116.907 220.382 105.342 220.382 105.342Z" fill="black"/>
<path opacity="0.2" d="M267.986 120.134C267.986 120.134 269.868 128.472 262.338 130.354C254.807 132.237 243.78 131.161 241.091 127.934C238.401 124.706 244.856 110.452 244.856 110.452C244.856 110.452 242.435 110.183 240.284 106.149C238.132 102.114 235.981 96.1976 235.981 96.1976C235.981 96.1976 234.636 102.114 234.636 104.804C234.636 107.494 237.057 131.161 237.057 131.161C237.057 131.161 245.126 132.237 250.773 135.464C256.42 138.691 261.531 141.65 261.531 141.65C261.531 141.65 263.144 136.809 264.758 135.195C266.372 133.582 271.483 126.858 267.986 120.134Z" fill="black"/>
<path opacity="0.2" d="M93.4387 125.245C93.4387 125.245 93.1699 139.499 103.927 140.575C114.685 141.651 122.485 135.465 129.208 135.465C135.932 135.465 136.201 138.423 140.773 136.81C145.345 135.196 151.8 130.893 158.523 131.969C165.247 133.045 173.854 138.154 177.35 138.154C180.846 138.154 184.611 136.541 188.107 137.078C191.603 137.616 202.093 140.574 203.975 139.768C205.858 138.961 203.438 142.726 200.479 143.802C197.521 144.878 194.831 145.416 194.831 145.416C194.831 145.416 192.142 141.92 185.419 141.92C178.695 141.92 167.399 140.575 163.634 140.038C159.868 139.5 155.027 136.542 152.069 137.617C149.111 138.693 135.932 144.341 133.243 144.341C130.553 144.341 120.871 141.114 113.34 144.072C105.81 147.03 101.775 148.375 101.238 150.526C100.7 152.678 104.734 157.788 107.962 158.595C111.189 159.402 114.955 159.671 125.712 155.637C136.47 151.602 142.656 145.954 156.91 148.913C171.164 151.871 184.611 156.443 188.646 157.788C192.68 159.133 199.135 160.746 203.169 159.402C207.203 158.057 208.817 155.636 208.817 155.636C208.817 155.636 209.624 159.939 206.935 160.746C204.245 161.554 201.287 164.242 196.983 163.436C192.68 162.629 164.369 150.909 156.979 152.294C149.588 153.679 137.815 154.56 137.815 155.367C137.815 156.174 160.407 154.83 166.592 157.788C172.778 160.746 182.191 163.974 185.419 165.05C188.646 166.126 194.025 166.932 194.025 166.932C194.025 166.932 178.964 168.008 168.475 165.856C157.986 163.705 148.572 164.242 148.572 164.242C148.572 164.242 114.415 175 112.533 175.27C110.651 175.538 96.9339 178.766 88.0587 173.925C79.1835 169.084 73.2667 159.402 71.6531 153.216C70.0395 147.03 67.0811 129.01 67.0811 129.01C67.0811 129.01 67.3499 121.48 69.7707 123.362C72.1915 125.245 75.1499 136.272 79.1843 144.34C83.2187 152.408 91.8251 167.47 97.2035 169.621C102.583 171.773 106.61 168.913 104.196 166.662C101.782 164.412 95.8587 155.366 93.7075 144.878C91.5563 134.389 93.4387 125.245 93.4387 125.245Z" fill="black"/>
<path opacity="0.2" d="M200.211 147.03C200.211 147.03 208.549 140.037 211.239 146.761C213.928 153.485 220.652 169.89 238.671 175.27C256.691 180.649 262.339 179.304 260.456 173.387C258.574 167.47 258.574 167.47 258.574 167.47C258.574 167.47 262.243 172.966 266.373 170.429C270.503 167.892 275.74 160.166 275.74 160.166C275.74 160.166 269.6 176.346 266.373 179.305C263.146 182.263 263.156 181.738 260.461 185.631C257.766 189.525 260.455 190.87 253.195 192.483C245.934 194.097 242.388 190.685 239.858 189.566C237.327 188.448 223.609 183.395 218.769 179.304C213.929 175.213 204.783 166.126 204.515 165.05C204.246 163.974 203.048 162.943 203.048 162.943C203.048 162.943 210.7 161.015 210.431 157.519C210.162 154.022 200.211 147.03 200.211 147.03Z" fill="black"/>
<path opacity="0.2" d="M219.575 51.5528C219.575 51.5528 226.837 56.932 227.644 64.7312C228.45 72.5304 223.61 76.0272 221.996 80.0616C220.382 84.096 219.766 89.5136 224.417 90.5504C229.068 91.5872 229.068 91.5872 229.068 91.5872C229.068 91.5872 225.223 84.9024 227.644 82.2128C230.065 79.5232 239.478 72.7992 240.015 71.4544C240.553 70.1096 237.594 66.8824 239.478 65C241.36 63.1176 243.512 63.924 246.47 65.2688C249.429 66.6136 257.766 72.2616 257.766 72.2616C257.766 72.2616 259.918 69.3032 251.042 63.1176C242.167 56.932 238.402 58.8144 233.83 58.008C229.258 57.2008 219.575 51.5528 219.575 51.5528Z" fill="black"/>
<path opacity="0.2" d="M65.4683 38.3744C65.4683 38.3744 75.1507 34.6088 79.7227 35.6848C84.2947 36.7608 89.9426 40.5256 89.9426 40.5256L95.3218 38.1048C95.3218 38.1048 90.7499 44.5592 90.4811 45.6352C90.2123 46.7112 82.9507 43.2144 78.3787 42.1392C73.8051 41.064 65.4683 38.3744 65.4683 38.3744Z" fill="black"/>
<path opacity="0.2" d="M38.0352 66.8832C38.0352 66.8832 40.1864 73.876 36.1528 74.1448C32.1192 74.4136 24.8568 72.2624 24.0504 68.7656C23.2432 65.2696 28.0848 59.0832 30.5048 57.7384C32.9256 56.3936 40.9936 53.9728 40.9936 53.9728C40.9936 53.9728 38.304 48.8624 30.7736 52.0904C23.2432 55.3176 23.512 64.1928 20.8224 65C18.1328 65.8064 15.9816 61.2344 15.9816 61.2344C15.9816 61.2344 14.0024 64.8816 15.7128 68.2272C17.4232 71.5728 22.9536 74.416 24.3192 74.9512C25.6848 75.4864 34.4 80.1848 38.3048 79.792C42.2096 79.4 43.4152 75.4888 42.0704 72.2616C40.7256 69.0344 38.0352 66.8832 38.0352 66.8832Z" fill="black"/>
<path opacity="0.2" d="M110.216 118.932C110.216 118.932 106.686 115.402 102.274 115.844C97.8625 116.285 92.1273 120.256 87.2737 119.374C82.4209 118.491 77.1265 115.403 77.1265 115.403C77.1265 115.403 83.3817 124.942 85.9505 125.11C88.5193 125.276 107.128 123.786 110.216 118.932Z" fill="black"/>
<path opacity="0.2" d="M176.396 61.136C176.396 61.136 179.484 69.5184 176.396 75.6952C173.307 81.872 162.278 84.5192 158.307 82.3128C154.336 80.1064 152.607 75.22 152.607 75.22C152.607 75.22 152.081 83.5088 157.179 87.3224C157.179 87.3224 167.13 85.8424 168.895 86.2832C170.66 86.724 174.19 86.724 174.19 86.724C174.19 86.724 177.199 81.7992 180.366 76.5768C183.534 71.3544 184.338 69.0768 185.22 65.988C186.102 62.9 186.543 61.1352 190.514 59.3704C194.485 57.6056 194.485 57.6056 194.485 57.6056C194.485 57.6056 191.397 53.6344 186.102 56.7232C180.807 59.812 180.807 62.9008 176.396 61.136Z" fill="black"/>
<path opacity="0.2" d="M57.2729 26.7224C57.2729 26.7224 53.7433 27.164 54.1849 31.1344C54.6257 35.1048 52.4201 35.5464 45.3609 36.4288C38.3017 37.3112 33.8897 38.1936 29.9193 41.2816C25.9481 44.3696 25.9481 44.3696 25.9481 44.3696L20.2129 53.6344C20.2129 53.6344 32.5665 40.3984 42.7137 39.9576C52.8609 39.5168 53.7433 42.164 53.7433 43.4872C53.7433 44.8104 53.3025 50.5464 53.3025 50.5464C53.3025 50.5464 55.5089 44.3696 59.9201 39.5168L57.2729 26.7224Z" fill="black"/>
<path d="M23.1697 40.0144C23.1697 40.0144 19.9289 43.7184 17.8449 46.4968C15.7617 49.2752 14.8353 51.5896 14.8353 51.5896C14.8353 51.5896 6.26971 57.1456 4.18651 63.396C2.10331 69.6464 0.94571 73.5824 1.87131 79.8328C2.79771 86.0832 5.11211 91.6392 5.11211 91.6392C5.11211 91.6392 5.34331 97.6584 15.0665 101.362C24.7897 105.066 53.2649 115.947 54.6537 117.105C56.0425 118.262 66.4601 125.439 66.4601 125.439L68.7753 137.246C68.7753 137.246 70.1641 151.83 72.4793 155.766C74.7945 159.701 78.4985 170.118 85.9065 174.054C93.3145 177.99 102.575 177.758 108.363 176.37C114.15 174.981 118.086 173.129 131.281 168.73C144.476 164.33 149.339 163.174 150.264 162.942C151.19 162.711 182.443 169.425 191.009 167.804C199.575 166.183 203.047 162.942 203.047 162.942C203.047 162.942 207.446 171.277 213.928 175.212C220.411 179.147 237.773 187.945 239.856 189.565C241.939 191.186 244.487 196.278 250.505 195.352C256.524 194.426 259.765 186.555 260.459 185.629C261.154 184.702 269.719 174.285 272.266 169.192C274.812 164.099 275.739 160.163 275.739 160.163C275.739 160.163 283.61 152.061 281.989 138.402C280.368 124.743 278.516 113.168 275.044 103.213C271.572 93.2576 269.719 89.5544 269.719 89.5544C269.719 89.5544 267.404 67.5616 256.755 57.3752C246.107 47.1888 239.855 44.1792 239.855 44.1792C239.855 44.1792 232.447 32.8352 222.261 28.6688C212.075 24.5016 196.795 12.6952 189.619 9.91681C182.443 7.13841 178.275 9.2224 178.275 9.2224C178.275 9.2224 158.598 2.972 144.013 2.972C129.428 2.972 129.428 2.972 129.428 2.972C129.428 2.972 115.075 -0.0376006 100.491 2.972C85.9057 5.9816 70.6265 3.6664 59.9777 8.2968C49.3289 12.9272 37.9849 23.8072 37.9849 23.8072C37.9849 23.8072 25.9481 31.4488 23.1697 40.0144Z" stroke="#263238" stroke-miterlimit="10"/>
<path d="M81.2227 106.631C81.2227 106.631 81.2227 102.61 87.7579 101.353C94.2931 100.096 99.0683 102.358 99.0683 102.358C99.0683 102.358 82.9819 104.621 81.2227 106.631Z" fill="white"/>
<path d="M115.908 103.866C115.908 103.866 115.908 99.8448 122.443 98.588C128.979 97.3312 133.754 99.5936 133.754 99.5936C133.754 99.5936 117.667 101.856 115.908 103.866Z" fill="white"/>
<path d="M141.546 97.8344C141.546 97.8344 141.546 93.8128 148.081 92.556C154.616 91.2992 159.392 93.5616 159.392 93.5616C159.392 93.5616 143.305 95.8232 141.546 97.8344Z" fill="white"/>
<path d="M134.75 56.0736C134.75 56.0736 132.793 52.56 137.891 48.2824C142.988 44.0048 148.261 43.6568 148.261 43.6568C148.261 43.6568 135.309 53.4608 134.75 56.0736Z" fill="white"/>
<path d="M109.364 46.0192C109.364 46.0192 107.407 42.5056 112.505 38.228C117.603 33.9504 122.875 33.6024 122.875 33.6024C122.875 33.6024 109.923 43.4064 109.364 46.0192Z" fill="white"/>
<path d="M55.852 79.6552C55.852 79.6552 53.8952 76.1416 58.9928 71.864C64.0904 67.5864 69.3632 67.2384 69.3632 67.2384C69.3632 67.2384 56.4104 77.0424 55.852 79.6552Z" fill="white"/>
<path d="M73.7651 69.7184C73.7651 69.7184 73.8123 65.6968 80.3619 64.5176C86.9115 63.3376 91.6595 65.656 91.6595 65.656C91.6595 65.656 75.5475 67.7288 73.7651 69.7184Z" fill="white"/>
<path d="M187.387 46.9608C187.387 46.9608 190.843 41.9808 203.202 48.2528C215.562 54.524 221.86 63.0456 221.86 63.0456C221.86 63.0456 192.152 46.5784 187.387 46.9608Z" fill="white"/>
<path d="M60.829 33.1048C60.829 33.1048 60.189 29.1344 66.441 26.8536C72.693 24.5736 77.7674 26.0464 77.7674 26.0464C77.7674 26.0464 62.2458 30.8392 60.829 33.1048Z" fill="white"/>
<path d="M160.513 22.2304C160.513 22.2304 159.873 18.26 166.125 15.98C172.377 13.6992 177.452 15.1728 177.452 15.1728C177.452 15.1728 161.93 19.9648 160.513 22.2304Z" fill="white"/>
<path d="M128.761 22.1432C128.761 22.1432 128.121 18.1728 134.373 15.8928C140.625 13.612 145.699 15.0856 145.699 15.0856C145.699 15.0856 130.177 19.8784 128.761 22.1432Z" fill="white"/>
<path opacity="0.35" d="M179.213 170.01C179.213 170.01 191.522 188.66 204.949 194.627C218.376 200.595 216.511 195 210.17 190.151C203.83 185.302 189.283 171.502 195.251 174.858C201.219 178.215 204.949 182.318 217.63 189.032C230.312 195.746 239.263 194.254 239.263 194.254C239.263 194.254 238.89 201.34 236.279 205.07C233.668 208.8 229.938 209.174 226.209 208.427C222.479 207.682 213.527 205.816 213.527 205.816C213.527 205.816 215.019 208.427 219.868 211.038C224.717 213.649 232.176 214.394 232.176 214.394C232.176 214.394 231.615 217.542 224.809 220.817C218.002 224.092 212.035 219.243 205.322 214.767C198.608 210.291 186.672 196.491 187.791 200.594C188.91 204.697 194.878 210.664 199.354 214.767C203.83 218.87 216.138 225.211 216.138 225.211C216.138 225.211 208.678 224.838 205.694 224.466C202.71 224.093 206.021 226.455 201.195 223.595C196.37 220.735 190.402 214.395 185.553 207.681C180.704 200.967 178.466 202.459 181.823 206.562C185.18 210.665 188.91 217.378 190.774 219.989C192.639 222.6 194.878 224.092 194.878 225.583C194.878 227.074 198.981 225.956 194.878 227.075C190.774 228.194 182.942 221.481 178.839 215.14C174.736 208.799 169.887 190.523 172.126 201.713C174.364 212.902 178.466 222.227 181.823 225.21C185.18 228.194 187.418 229.314 187.418 229.314C187.418 229.314 181.45 228.568 177.72 223.719C173.99 218.87 168.768 200.967 168.768 193.507C168.768 186.047 169.514 181.945 171.379 184.182C173.244 186.42 175.482 194.253 176.601 193.507C177.72 192.762 172.498 173.739 174.736 177.096C176.974 180.453 191.894 202.086 189.282 194.999C186.671 187.913 181.077 180.453 179.585 176.35C178.094 172.249 179.213 170.01 179.213 170.01Z" fill="black"/>
<path d="M68.7347 120.275C68.7347 120.275 68.2995 115.057 69.6043 113.318C70.9091 111.578 72.6483 111.796 72.6483 111.796C72.6483 111.796 70.0395 104.621 81.3451 99.8376C92.6507 95.0544 110.697 98.968 110.697 98.968C110.697 98.968 119.176 96.1416 127.656 95.924C136.136 95.7064 140.049 93.532 141.572 92.228C143.093 90.9232 148.529 87.2272 158.313 87.2272C168.097 87.2272 174.403 87.4448 174.403 87.4448C174.403 87.4448 182.23 77.6608 183.535 71.3552C184.84 65.0496 190.057 60.7016 190.057 60.7016" stroke="#263238" stroke-width="2" stroke-miterlimit="10" stroke-linecap="round" stroke-linejoin="round"/>
<path d="M177.228 61.7888C177.228 61.7888 183.534 66.1376 183.534 71.3552" stroke="#263238" stroke-width="2" stroke-miterlimit="10" stroke-linecap="round" stroke-linejoin="round"/>
<path d="M162.008 56.788C162.008 56.788 151.789 55.9184 150.919 68.3112C150.05 80.704 156.79 86.792 158.312 87.2272" stroke="#263238" stroke-width="2" stroke-miterlimit="10" stroke-linecap="round" stroke-linejoin="round"/>
<path d="M170.346 47.64C179.511 40.0736 186.963 37.0824 192.882 38.3072C199.188 39.612 210.929 45.4824 216.582 48.5256C222.234 51.5696 226.583 54.396 228.105 57.6576C229.627 60.9192 229.626 60.9192 229.626 60.9192" stroke="#263238" stroke-width="2" stroke-miterlimit="10" stroke-linecap="round" stroke-linejoin="round"/>
<path d="M163.748 64.8328C163.748 64.8328 159.753 59.5056 165.455 52.348" stroke="#263238" stroke-width="2" stroke-miterlimit="10" stroke-linecap="round" stroke-linejoin="round"/>
<path d="M188.317 37.4376L187.665 26.784C187.665 26.784 190.491 25.9144 187.23 19.1744C183.968 12.4344 174.184 10.912 171.14 11.5648C168.096 12.2168 163.095 12.652 160.051 16.7832C157.007 20.9144 156.79 24.6104 156.79 25.2624C156.79 25.9144 153.528 29.3936 152.224 33.3072C150.92 37.2208 150.485 39.6128 150.485 39.6128C150.485 39.6128 142.44 37.2208 132.874 49.3968" stroke="#263238" stroke-width="2" stroke-miterlimit="10" stroke-linecap="round" stroke-linejoin="round"/>
<path d="M130.482 53.744C130.482 53.744 126.786 57.2224 125.047 67.0064C123.308 76.7904 123.09 81.1392 120.264 86.1392C117.437 91.14 115.481 95.0536 120.046 96.5752" stroke="#263238" stroke-width="2" stroke-miterlimit="10" stroke-linecap="round" stroke-linejoin="round"/>
<path d="M129.395 27.0016C129.395 27.0016 110.479 33.524 106.349 42.2208C102.218 50.9176 101.348 59.832 102.218 63.9632C102.424 64.944 102.582 66.1808 102.698 67.5216" stroke="#263238" stroke-width="2" stroke-miterlimit="10" stroke-linecap="round" stroke-linejoin="round"/>
<path d="M101.13 60.2664C101.13 60.2664 98.304 57.0048 95.26 65.0496C92.216 73.0944 88.3024 82.8784 86.3456 87.6616C84.3888 92.4448 85.476 94.6192 86.3456 95.4888" stroke="#263238" stroke-width="2" stroke-miterlimit="10" stroke-linecap="round" stroke-linejoin="round"/>
<path d="M95.2603 65.0504C95.2603 65.0504 88.9547 60.4848 83.3019 60.7016C77.6491 60.9192 73.0827 64.6152 72.2131 65.7024C72.2131 65.7024 65.4731 63.3104 59.1675 68.5288C52.8619 73.7472 52.4275 79.8344 52.4275 79.8344C52.4275 79.8344 49.1659 73.0944 42.2083 79.3992C35.2507 85.704 41.7739 92.6624 48.7307 95.7056C55.6883 98.7496 72.0467 106.382 72.0467 106.382" stroke="#263238" stroke-width="2" stroke-miterlimit="10" stroke-linecap="round" stroke-linejoin="round"/>
<path d="M52.4272 79.8352C52.4272 79.8352 58.372 87.6576 64.1272 90.9464" stroke="#263238" stroke-width="2" stroke-miterlimit="10" stroke-linecap="round" stroke-linejoin="round"/>
<path d="M72.2132 65.7024C72.2132 65.7024 71.938 79.436 74.8148 87.6576" stroke="#263238" stroke-width="2" stroke-miterlimit="10" stroke-linecap="round" stroke-linejoin="round"/>
<path d="M52.6448 50.4832C52.6448 50.4832 55.036 45.9176 53.9496 42.2216C52.8624 38.5256 37.4256 38.0904 30.468 43.7432C23.5104 49.396 20.4664 51.3528 17.2056 57.6584C13.944 63.964 14.1616 68.312 14.1616 68.312C14.1616 68.312 10.4656 68.7472 8.50879 73.9648" stroke="#263238" stroke-width="2" stroke-miterlimit="10" stroke-linecap="round" stroke-linejoin="round"/>
<path d="M40.0346 55.2664C40.0346 55.2664 37.8602 54.3968 31.5554 57.8752C25.2498 61.3536 24.5978 65.4848 24.3802 68.964C24.1626 72.4424 25.685 75.4864 25.685 75.4864C25.685 75.4864 31.121 78.5304 35.469 78.748C39.8178 78.9656 42.209 78.9656 42.8618 75.9216C43.5138 72.8776 36.7738 64.8328 36.7738 64.8328" stroke="#263238" stroke-width="2" stroke-miterlimit="10" stroke-linecap="round" stroke-linejoin="round"/>
<path d="M17.4224 71.5728C17.4224 71.5728 21.988 76.1384 25.684 75.4864" stroke="#263238" stroke-width="2" stroke-miterlimit="10" stroke-linecap="round" stroke-linejoin="round"/>
<path d="M53.5146 52.6568C53.5146 52.6568 53.9499 41.3504 62.2115 39.8288C70.4739 38.3072 85.9106 44.1776 85.9106 44.1776" stroke="#263238" stroke-width="2" stroke-miterlimit="10" stroke-linecap="round" stroke-linejoin="round"/>
<path d="M60.0371 40.4816C60.0371 40.4816 59.6027 34.6112 57.8627 30.6976C56.1235 26.784 57.2107 25.0448 60.6891 24.1752C64.1675 23.3056 70.9083 23.088 75.6915 20.6968" stroke="#263238" stroke-width="2" stroke-miterlimit="10" stroke-linecap="round" stroke-linejoin="round"/>
<path d="M105.478 13.0864C105.478 13.0864 96.564 15.2608 97.2168 24.1752C97.8688 33.0896 105.914 37.4376 106.566 38.7424" stroke="#263238" stroke-width="2" stroke-miterlimit="10" stroke-linecap="round" stroke-linejoin="round"/>
<path d="M124.177 29.1752C124.177 29.1752 122.872 22.4352 127.003 18.304C131.135 14.1728 131.787 10.4768 147.223 12.216C162.66 13.9552 160.921 13.9552 160.921 13.9552" stroke="#263238" stroke-width="2" stroke-miterlimit="10" stroke-linecap="round" stroke-linejoin="round"/>
<path d="M133.527 12.2168C133.527 12.2168 126.352 10.4776 118.307 10.0424C110.262 9.6072 89.3899 12.2168 80.9099 13.304C72.4307 14.3912 59.3851 15.2608 49.6011 20.044C39.8171 24.8272 36.9907 27.436 36.9907 27.436" stroke="#263238" stroke-width="2" stroke-miterlimit="10" stroke-linecap="round" stroke-linejoin="round"/>
<path d="M55.9503 17.3296C55.9503 17.3296 55.6887 15.0432 60.0375 10.912" stroke="#263238" stroke-width="2" stroke-miterlimit="10" stroke-linecap="round" stroke-linejoin="round"/>
<path d="M205.336 92.0408C208.267 85.2856 209.393 78.6888 211.363 75.0512" stroke="#263238" stroke-width="2" stroke-miterlimit="10" stroke-linecap="round" stroke-linejoin="round"/>
<path d="M115.398 120.086C119.122 119.732 123.09 119.514 124.394 119.841C127.003 120.493 137.005 123.537 142.441 120.71C147.876 117.884 156.356 116.362 156.356 116.362C156.356 116.362 158.53 116.797 165.053 113.753C171.575 110.709 177.229 107.23 177.881 107.013C178.533 106.795 193.101 109.839 200.275 100.707C200.914 99.8944 201.505 99.0632 202.053 98.2216" stroke="#263238" stroke-width="2" stroke-miterlimit="10" stroke-linecap="round" stroke-linejoin="round"/>
<path d="M77.2139 116.579C77.2139 116.579 85.4763 125.711 88.5195 125.276C90.9275 124.932 101.229 122.819 105.75 121.736" stroke="#263238" stroke-width="2" stroke-miterlimit="10" stroke-linecap="round" stroke-linejoin="round"/>
<path d="M93.5202 124.189C93.5202 124.189 89.1714 132.886 93.085 144.844C96.9986 156.802 101.782 164.412 101.782 164.412" stroke="#263238" stroke-width="2" stroke-miterlimit="10" stroke-linecap="round" stroke-linejoin="round"/>
<path d="M133.916 143.382C136.034 143.862 137.498 143.999 140.702 142.453C147.007 139.409 152.225 137.67 156.138 137.67C160.052 137.67 163.531 140.496 169.184 141.148C174.837 141.8 188.752 140.061 191.578 142.887C194.405 145.714 197.666 153.758 200.927 155.063" stroke="#263238" stroke-width="2" stroke-miterlimit="10" stroke-linecap="round" stroke-linejoin="round"/>
<path d="M104.391 149.41C104.391 149.41 112.653 142.453 123.742 142.235C125.192 142.207 126.446 142.242 127.542 142.317" stroke="#263238" stroke-width="2" stroke-miterlimit="10" stroke-linecap="round" stroke-linejoin="round"/>
<path d="M202.884 140.93C199.84 142.235 195.492 145.062 195.492 145.062C195.492 145.062 209.407 152.889 209.624 157.89C209.842 162.89 199.623 162.89 199.623 162.89C199.623 162.89 196.971 163.869 181.176 158.774C165.382 153.678 162.325 151.641 149.588 153.678C136.85 155.716 136.34 156.735 129.208 160.811" stroke="#263238" stroke-width="2" stroke-miterlimit="10" stroke-linecap="round" stroke-linejoin="round"/>
<path d="M238.833 149.506C244.53 149.715 249.497 149.362 250.499 151.367C252.021 154.411 251.587 156.586 251.587 156.586C251.587 156.586 270.937 165.065 270.503 167.891" stroke="#263238" stroke-width="2" stroke-miterlimit="10" stroke-linecap="round" stroke-linejoin="round"/>
<path d="M174.402 131.146C174.402 131.146 184.838 127.233 193.1 127.015C201.362 126.798 218.756 132.886 220.06 136.582C221.365 140.278 221.365 145.93 229.844 148.322C230.584 148.531 231.34 148.703 232.105 148.846" stroke="#263238" stroke-width="2" stroke-miterlimit="10" stroke-linecap="round" stroke-linejoin="round"/>
<path d="M270.285 162.238C270.285 162.238 274.416 159.846 272.024 155.062C269.632 150.279 263.327 141.8 253.978 136.364C244.629 130.929 236.801 130.929 236.801 130.929C236.801 130.929 238.322 119.188 236.801 113.318C235.279 107.447 234.626 103.969 234.626 103.969" stroke="#263238" stroke-width="2" stroke-miterlimit="10" stroke-linecap="round" stroke-linejoin="round"/>
<path d="M237.671 117.884C237.671 117.884 240.498 112.231 245.063 109.839" stroke="#263238" stroke-width="2" stroke-miterlimit="10" stroke-linecap="round" stroke-linejoin="round"/>
<path d="M219.626 99.62C219.626 99.62 221.147 110.274 220.93 111.796C220.713 113.318 217.451 115.274 216.147 121.58C214.842 127.886 213.321 130.494 213.321 130.494C213.321 130.494 214.19 132.234 217.67 131.582C221.148 130.93 227.671 122.015 227.671 122.015" stroke="#263238" stroke-width="2" stroke-miterlimit="10" stroke-linecap="round" stroke-linejoin="round"/>
<path d="M268.274 126.309C268.002 130.059 267.132 133.212 265.719 134.842C262.893 138.104 261.806 142.018 261.806 142.018" stroke="#263238" stroke-width="2" stroke-miterlimit="10" stroke-linecap="round" stroke-linejoin="round"/>
<path d="M229.068 91.5872C226.67 89.744 225.125 86.2072 228.105 82.444C232.236 77.2256 239.412 73.0944 240.064 72.2248C240.716 71.3552 239.846 66.1368 242.672 64.8328C245.499 63.528 253.761 68.964 257.675 74.6168C261.588 80.2696 262.458 86.5752 262.023 89.4016C261.588 92.228 265.285 106.143 267.242 114.188C267.718 116.145 268.039 118.179 268.213 120.185" stroke="#263238" stroke-width="2" stroke-miterlimit="10" stroke-linecap="round" stroke-linejoin="round"/>
<path d="M252.456 88.9664C252.456 88.9664 250.717 86.14 246.803 88.3144C244.022 89.8592 239.486 91.7328 235.845 92.5328" stroke="#263238" stroke-width="2" stroke-miterlimit="10" stroke-linecap="round" stroke-linejoin="round"/>
<path d="M253.761 92.88C253.761 92.88 256.805 102.664 257.457 110.709C258.109 118.754 256.37 122.014 256.37 122.014L251.586 121.797" stroke="#263238" stroke-width="2" stroke-miterlimit="10" stroke-linecap="round" stroke-linejoin="round"/>
<path d="M256.37 122.014L262.022 125.276" stroke="#263238" stroke-width="2" stroke-miterlimit="10" stroke-linecap="round" stroke-linejoin="round"/>
<path d="M187.446 31.5672C187.446 31.5672 188.098 20.4784 201.144 23.74C214.189 27.0016 213.754 46.5696 213.754 46.5696" stroke="#263238" stroke-width="2" stroke-miterlimit="10" stroke-linecap="round" stroke-linejoin="round"/>
<path d="M212.015 37.6552C212.015 37.6552 215.494 33.9592 222.669 35.0464C229.844 36.1336 232.887 38.96 232.887 38.96" stroke="#263238" stroke-width="2" stroke-miterlimit="10" stroke-linecap="round" stroke-linejoin="round"/>
<path d="M227.235 39.1768L237.671 48.7432C237.671 48.7432 239.411 47.8736 242.672 48.0912" stroke="#263238" stroke-width="2" stroke-miterlimit="10" stroke-linecap="round" stroke-linejoin="round"/>
<path d="M23.1697 40.0144C23.1697 40.0144 19.9289 43.7184 17.8449 46.4968C15.7617 49.2752 14.8353 51.5896 14.8353 51.5896C14.8353 51.5896 6.26971 57.1456 4.18651 63.396C2.10331 69.6464 0.94571 73.5824 1.87131 79.8328C2.79771 86.0832 5.11211 91.6392 5.11211 91.6392C5.11211 91.6392 5.34331 97.6584 15.0665 101.362C24.7897 105.066 53.2649 115.947 54.6537 117.105C56.0425 118.262 66.4601 125.439 66.4601 125.439L68.7753 137.246C68.7753 137.246 70.1641 151.83 72.4793 155.766C74.7945 159.701 78.4985 170.118 85.9065 174.054C93.3145 177.99 102.575 177.758 108.363 176.37C114.15 174.981 118.086 173.129 131.281 168.73C144.476 164.33 149.339 163.174 150.264 162.942C151.19 162.711 182.443 169.425 191.009 167.804C199.575 166.183 203.047 162.942 203.047 162.942C203.047 162.942 207.446 171.277 213.928 175.212C220.411 179.147 237.773 187.945 239.856 189.565C241.939 191.186 244.487 196.278 250.505 195.352C256.524 194.426 259.765 186.555 260.459 185.629C261.154 184.702 269.719 174.285 272.266 169.192C274.812 164.099 275.739 160.163 275.739 160.163C275.739 160.163 283.61 152.061 281.989 138.402C280.368 124.743 278.516 113.168 275.044 103.213C271.572 93.2576 269.719 89.5544 269.719 89.5544C269.719 89.5544 267.404 67.5616 256.755 57.3752C246.107 47.1888 239.855 44.1792 239.855 44.1792C239.855 44.1792 232.447 32.8352 222.261 28.6688C212.075 24.5016 196.795 12.6952 189.619 9.91681C182.443 7.13841 178.275 9.2224 178.275 9.2224C178.275 9.2224 158.598 2.972 144.013 2.972C129.428 2.972 129.428 2.972 129.428 2.972C129.428 2.972 115.075 -0.0376006 100.491 2.972C85.9057 5.9816 70.6265 3.6664 59.9777 8.2968C49.3289 12.9272 37.9849 23.8072 37.9849 23.8072C37.9849 23.8072 25.9481 31.4488 23.1697 40.0144Z" stroke="#263238" stroke-width="2" stroke-miterlimit="10"/>
<defs>
<linearGradient id="paint0_linear_308_190" x1="141.879" y1="1.6344" x2="141.879" y2="195.464" gradientUnits="userSpaceOnUse">
<stop stop-color="#E41C1C"/>
<stop offset="0.161458" stop-color="#F15F0D"/>
<stop offset="0.354167" stop-color="#E2CF26"/>
<stop offset="0.515625" stop-color="#2243EC"/>
<stop offset="0.703125" stop-color="#E41DB8"/>
<stop offset="1" stop-color="#ED0000"/>
</linearGradient>
</defs>
</svg>
