<svg width="48" height="48" viewBox="0 0 48 48" fill="none" xmlns="http://www.w3.org/2000/svg">
<rect width="48" height="48" fill="black"/>
<path d="M26.1297 32.5919L24.4669 40.0651C24.3505 40.5878 23.8431 40.9261 23.3158 40.8325L18.0888 39.9039C17.4133 39.7839 17.0565 39.0349 17.389 38.4347L19.0332 35.4667M26.1297 32.5919H33.8908C34.3213 32.5919 34.7035 32.3163 34.8395 31.9078L36.6824 26.3731M26.1297 32.5919L19.0332 35.4667M26.1297 32.5919L15.4588 27.9403M26.1297 32.5919L23.2235 21.6716M36.6824 26.3731L44.3703 24.9413C44.8021 24.8609 45.1308 24.5081 45.1807 24.0717L46 16.9003M36.6824 26.3731L23.2235 21.6716M46 16.9003L40.4518 9.11436M46 16.9003H32.5412M19.0332 35.4667L7.93681 33.3106M23.2235 21.6716L32.5412 16.9003M23.2235 21.6716L2 22.7164M15.4588 27.9403L7.93681 33.3106M15.4588 27.9403L2 22.7164M7.93681 33.3106L3.27235 30.0906C3.03841 29.9291 2.88426 29.6757 2.84842 29.3937L2 22.7164M40.4518 9.11436L32.5412 16.9003M40.4518 9.11436L26.7749 6M32.5412 16.9003L8.72941 11.7463M32.5412 16.9003L26.7749 6M8.72941 11.7463L2.83824 16.6343C2.63306 16.8045 2.50435 17.0496 2.48072 17.3152L2 22.7164M8.72941 11.7463L16.6034 8.08618C16.6747 8.05305 16.7496 8.02844 16.8266 8.01286L26.7749 6" stroke="white" stroke-width="1.5"/>
</svg>
