<svg width="48" height="48" viewBox="0 0 48 48" fill="none" xmlns="http://www.w3.org/2000/svg">
<rect width="48" height="48" rx="10" fill="black"/>
<path d="M25.8071 31.4522L24.2091 38.5688C24.0921 39.09 23.5861 39.4271 23.06 39.3345L18.0956 38.4606C17.4177 38.3413 17.0602 37.5886 17.3961 36.9878L18.9525 34.2038M25.8071 31.4522H33.2811C33.7106 31.4522 34.0922 31.1779 34.229 30.7707L36 25.5M25.8071 31.4522L18.9525 34.2038M25.8071 31.4522L15.5 27M25.8071 31.4522L23 21M36 25.5L43.4004 24.1342C43.8325 24.0545 44.162 23.7019 44.2123 23.2654L45 16.4331M36 25.5L23 21M45 16.4331L39.6409 8.98089M45 16.4331H32M18.9525 34.2038L8.23442 32.1401M23 21L32 16.4331M23 21L2.5 22M15.5 27L8.23442 32.1401M15.5 27L2.5 22M8.23442 32.1401L3.74412 29.0685C3.5086 28.9074 3.35313 28.6534 3.31684 28.3704L2.5 22M39.6409 8.98089L32 16.4331M39.6409 8.98089L26.4303 6M32 16.4331L9 11.5M32 16.4331L26.4303 6M9 11.5L3.32344 16.1672C3.11652 16.3373 2.98651 16.5834 2.96254 16.8502L2.5 22M9 11.5L16.6025 7.99817C16.6734 7.96553 16.7478 7.9413 16.8243 7.92596L26.4303 6" stroke="white" stroke-width="1.5"/>
</svg>
